<svg width="73" height="90" viewBox="0 0 73 90" fill="none" xmlns="http://www.w3.org/2000/svg">
<g clip-path="url(#clip0)">
<path d="M45.2018 4.08997C44.8418 4.08997 44.5749 4.35689 44.5749 4.7204C44.5749 5.08392 44.826 5.33504 45.2018 5.33504H51.104C56.9694 5.33504 61.7671 10.1257 61.7671 15.9946V26.8139L57.8264 22.8802C57.57 22.6238 57.2065 22.6238 56.9501 22.8802C56.6937 23.1366 56.6937 23.5001 56.9501 23.7565L61.9479 28.7544C62.0691 28.8755 62.2201 28.9388 62.394 28.9388C62.5468 28.9388 62.7277 28.865 62.84 28.7544L67.8379 23.7565C68.0943 23.5001 68.0943 23.1366 67.8379 22.8802C67.5815 22.6238 67.218 22.6238 66.9616 22.8802L63.0244 26.8174V15.9981C63.0104 9.43026 57.6736 4.08997 51.104 4.08997H45.2018ZM4.7062 4.21114C4.3462 4.21114 4.07576 4.47982 4.07576 4.84158V33.7101C4.07576 34.0701 4.34444 34.3405 4.7062 34.3405H33.5589C33.9083 34.3352 34.1893 34.0508 34.1893 33.7101V32.681H34.1928V4.84158C34.1928 4.48158 33.9241 4.21114 33.5624 4.21114H4.7062ZM5.32083 5.4685H32.9478V33.0796H5.32083V5.4685ZM38.5076 37.6595C38.1476 37.6595 37.8771 37.9282 37.8771 38.29V67.1427C37.8824 67.5114 38.1581 67.7731 38.5076 67.7731H39.5366V67.7766H67.376C67.736 67.7766 68.0065 67.5079 68.0065 67.1462V38.29C68.0065 37.93 67.7378 37.6595 67.376 37.6595H38.5076ZM39.138 38.9204H66.7649V66.5315H39.138V38.9204ZM9.70405 43.0595C9.55127 43.0595 9.37039 43.1333 9.258 43.2439L4.26015 48.2418C4.00376 48.4982 4.00376 48.8617 4.26015 49.1181C4.51654 49.3745 4.88005 49.3745 5.13644 49.1181L9.07361 45.1809V56.0055C9.07361 62.5733 14.4121 67.9101 20.9782 67.9101H26.8804C27.2404 67.9101 27.5109 67.6414 27.5109 67.2796C27.5109 66.9179 27.2545 66.665 26.8804 66.665H20.9817C15.1163 66.665 10.3187 61.8744 10.3187 56.0055V45.1809L14.2559 49.1181C14.3876 49.2498 14.5281 49.3025 14.7019 49.3025C14.8758 49.3025 15.0162 49.2498 15.148 49.1181C15.4043 48.8617 15.4043 48.4982 15.148 48.2418L10.1501 43.2439C10.0289 43.1228 9.8779 43.0595 9.70405 43.0595Z" fill="#0386FC"/>
</g>
<defs>
<clipPath id="clip0">
<rect x="0.0490112" width="72" height="90" fill="white"/>
</clipPath>
</defs>
</svg>
