<svg width="80" height="100" viewBox="0 0 80 100" fill="none" xmlns="http://www.w3.org/2000/svg">
<g clip-path="url(#clip0)">
<path d="M25.2234 7.90234C22.9151 7.90234 21.0536 9.76381 21.0536 12.0721V67.9297C21.0536 70.238 22.917 72.1033 25.2234 72.1033H54.7902C57.0966 72.1033 58.9639 70.236 58.9639 67.9297V12.0721C58.9639 9.76576 57.0966 7.90234 54.7902 7.90234H25.2234ZM25.2234 9.28966H54.7902C56.3141 9.28966 57.5707 10.5462 57.5707 12.0701V16.4858H22.4448V12.0701C22.4448 10.5482 23.6975 9.28966 25.2214 9.28966H25.2234ZM9.62533 13.8887C6.7785 13.8887 4.47801 16.1892 4.47801 19.036V60.9424C4.47801 63.7892 6.7785 66.0897 9.62533 66.0897H10.7687V66.0936H14.9112C15.317 66.0936 15.6117 65.797 15.6117 65.3872C15.6117 64.9775 15.319 64.6867 14.9112 64.6867H9.62533C7.56289 64.6867 5.87118 62.9872 5.87118 60.9287V19.0536C5.87118 16.9931 7.56484 15.2994 9.62533 15.2994H14.9112C15.317 15.2994 15.6117 15.0028 15.6117 14.5931C15.6117 14.1833 15.317 13.8867 14.9112 13.8867H9.62533V13.8887ZM65.0888 13.9102C64.681 13.9102 64.3883 14.2028 64.3883 14.6106C64.3883 15.0184 64.6829 15.317 65.0888 15.317H70.3746C72.4351 15.317 74.1288 17.0106 74.1288 19.0711V60.9775C74.1288 63.0204 72.4371 64.7043 70.3746 64.7043H69.2312V64.7004H65.0888C64.6829 64.7004 64.3883 64.997 64.3883 65.4067C64.3883 65.8165 64.6829 66.1131 65.0888 66.1131H70.3746C73.2215 66.1131 75.5219 63.8126 75.5219 60.9658V19.0594C75.5219 16.2126 73.2215 13.9121 70.3746 13.9121H65.0888V13.9102ZM22.4468 17.8789H57.5531V58.8741H22.4468V17.8789ZM22.4468 60.2672H57.5531V67.9277C57.5531 69.4497 56.3005 70.7082 54.7766 70.7082H25.2234C23.6995 70.7082 22.4468 69.4477 22.4468 67.9277V60.2672ZM36.3356 64.7004C35.9297 64.7004 35.6351 64.997 35.6351 65.4067C35.6351 65.8165 35.9297 66.1131 36.3356 66.1131H43.6663C44.0722 66.1131 44.3668 65.8165 44.3668 65.4067C44.3668 65.0107 44.0448 64.7004 43.6663 64.7004H36.3356Z" fill="#0386FC"/>
</g>
<defs>
<clipPath id="clip0">
<rect width="80" height="100" fill="white"/>
</clipPath>
</defs>
</svg>
