<svg width="80" height="100" viewBox="0 0 80 100" fill="none" xmlns="http://www.w3.org/2000/svg">
<g clip-path="url(#clip0)">
<path d="M31.6878 14.1522C31.3093 14.1522 31.0049 14.4469 31.0049 14.8488V31.4556C31.0049 31.8576 31.2995 32.1522 31.7015 32.1522H39.3093V39.4381H13.4791C13.0771 39.4381 12.7825 39.7327 12.7825 40.1347V47.8439H5.17467C4.77272 47.8439 4.47809 48.1386 4.47809 48.5405V65.1512C4.47809 65.5532 4.77272 65.8478 5.17467 65.8478H21.7815C22.1835 65.8478 22.482 65.5493 22.482 65.1512V48.5405C22.482 48.1425 22.1815 47.8439 21.7815 47.8439H14.16V40.8176H39.2937V47.8439H31.6859C31.2839 47.8439 30.9893 48.1386 30.9893 48.5405V65.1512C30.9893 65.5532 31.2839 65.8478 31.6859 65.8478H48.2927C48.6947 65.8478 48.9893 65.5532 48.9893 65.1512V48.5405C48.9893 48.1386 48.6947 47.8439 48.2927 47.8439H40.6849V40.8176H65.8186V47.8439H58.2108C57.8088 47.8439 57.5142 48.1386 57.5142 48.5405V65.1512C57.5142 65.5532 57.8088 65.8478 58.2108 65.8478H74.8176C75.2196 65.8478 75.5142 65.5532 75.5142 65.1512V48.5405C75.5142 48.1386 75.2196 47.8439 74.8176 47.8439H67.2098V40.1347C67.2098 39.7327 66.9152 39.4381 66.5132 39.4381H40.683V32.1522H48.2908C48.6927 32.1522 48.9874 31.8576 48.9874 31.4556V14.8488C48.9874 14.4469 48.6927 14.1522 48.2908 14.1522H31.6839H31.6878ZM32.3883 15.5317H47.6156V30.7591H32.3883V15.5317ZM5.87126 49.2098H21.0849V64.441H5.87126V49.2098ZM32.3708 49.2098H47.5981V64.441H32.3708V49.2098ZM58.9015 49.2098H74.1288V64.441H58.9015V49.2098Z" fill="#0386FC"/>
</g>
<defs>
<clipPath id="clip0">
<rect width="80" height="100" fill="white"/>
</clipPath>
</defs>
</svg>
